<?xml version="1.0" encoding="UTF-8"?>
<!DOCTYPE svg PUBLIC "-//W3C//DTD SVG 1.1//EN" "http://www.w3.org/Graphics/SVG/1.1/DTD/svg11.dtd">
<!-- Creator: CorelDRAW -->
<svg xmlns="http://www.w3.org/2000/svg" xml:space="preserve" width="40.1322mm" height="41.9988mm" version="1.1" style="shape-rendering:geometricPrecision; text-rendering:geometricPrecision; image-rendering:optimizeQuality; fill-rule:evenodd; clip-rule:evenodd"
viewBox="0 0 167 174.77"
 xmlns:xlink="http://www.w3.org/1999/xlink"
 xmlns:xodm="http://www.corel.com/coreldraw/odm/2003">
 <defs>
  <style type="text/css">
   <![CDATA[
    .fil1 {fill:#008C15}
    .fil0 {fill:white}
   ]]>
  </style>
    <clipPath id="id0">
     <rect width="167" height="174.77"/>
    </clipPath>
 </defs>
 <g id="Layer_x0020_1">
  <metadata id="CorelCorpID_0Corel-Layer"/>
  <g id="_1493480387904">
   <g style="clip-path:url(#id0)">
    <image x="0" y="0" width="167" height="174.77" xlink:href="logo z market_Images\logo z market_ImgID1.png"/>
   </g>
   <g>
    <path class="fil0" d="M93.88 113.6l16.41 0c-0.6,1.41 -2.22,3.82 -3.12,4.98 -1.23,1.6 -2.5,2.96 -3.91,4.2 -0.38,0.33 -0.67,0.58 -1.07,0.91 -0.38,0.31 -0.75,0.58 -1.15,0.89 -0.51,0.4 -1.88,1.29 -2.46,1.62 -5.99,3.44 -12.5,4.93 -19.77,3.93 -2.21,-0.3 -4.61,-0.93 -6.45,-1.66 -1,-0.39 -1.86,-0.76 -2.79,-1.23l-2.43 -1.35c-0.22,-0.16 -0.07,0.01 -0.15,-0.18 0.44,-0.31 0.92,-0.89 1.3,-1.27 0.76,-0.77 1.48,-1.56 2.27,-2.29l1.63 -1.67c0.44,-0.45 0.85,-0.87 1.29,-1.33l3.25 -3.3c0.22,-0.23 0.45,-0.42 0.67,-0.64 0.63,-0.65 2.32,-2.44 2.9,-2.98 0.86,-0.79 2.11,-2.11 2.94,-2.98l3.56 -3.62c0.12,-0.13 0.24,-0.2 0.36,-0.32 0.23,-0.23 0.42,-0.44 0.64,-0.67 3.86,-3.97 7.82,-7.89 11.68,-11.86 0.22,-0.23 0.41,-0.45 0.64,-0.67 1.24,-1.19 2.44,-2.55 3.59,-3.6 0.12,-0.11 0.22,-0.22 0.33,-0.35l1.94 -1.99c0.23,-0.23 0.42,-0.43 0.64,-0.67 0.22,-0.23 0.45,-0.42 0.67,-0.64 0.3,-0.31 1.01,-1.11 1.31,-1.31 0.15,0.31 0.43,0.71 0.62,1.02 0.21,0.34 0.39,0.69 0.59,1.06 1.58,2.89 2.37,5.34 3.1,8.61 0.08,0.36 -0.12,0.41 -0.65,0.94 -0.57,0.57 -1.1,1.1 -1.67,1.67 -1.06,1.06 -16.55,16.47 -16.71,16.75zm-34.65 5.18c-0.64,-0.47 -2.47,-3.67 -2.96,-4.51 -0.45,-0.77 -0.81,-1.68 -1.2,-2.54 -0.19,-0.42 -0.35,-0.88 -0.52,-1.33 -0.13,-0.34 -0.42,-1.12 -0.47,-1.45l18.05 -18.05 -17.97 -0.02c0.06,-0.54 1,-2.74 1.26,-3.34 0.87,-2.03 2.2,-4.12 3.48,-5.84 0.33,-0.45 0.69,-0.86 1.04,-1.29 0.95,-1.19 3.02,-3.15 4.16,-4.05 2.54,-2.01 4.98,-3.42 8.17,-4.69 4.53,-1.81 10.89,-2.57 16.25,-1.51 3.29,0.65 5.79,1.48 8.71,2.99 0.5,0.26 1.04,0.56 1.49,0.84 0.97,0.61 1.95,1.21 2.78,1.9 -0.43,0.39 -0.88,0.89 -1.3,1.32l-13.21 13.4c-3.04,3.13 -6.2,6.25 -9.26,9.38l-7.92 8.05c-0.39,0.33 -2.16,2.17 -2.63,2.66l-5.31 5.37c-0.89,0.9 -1.73,1.79 -2.65,2.68zm-6.79 -66.27c-1.45,-0.24 -3.65,-0.17 -5.2,-0.18 -5.32,-0.04 -10.66,0.04 -15.97,0.04 -1.77,0 -3.63,-0.04 -5.39,0.02 -2.03,0.08 -2.68,0.62 -2.47,2.74 0.15,1.5 1.62,6.79 2.09,8.58 0.75,2.84 1.38,5.77 2.11,8.62 0.73,2.86 1.41,5.71 2.11,8.57 3.15,12.87 6.42,25.82 9.5,38.7 1,4.17 1.49,8.7 4.35,11.67 0.74,0.77 1.93,1.71 3.15,2.23 0.68,0.29 1.23,0.45 2.05,0.62 1.61,0.34 0.54,0.32 2.35,0.32l64.23 0c1.17,0 1.48,0.09 2.48,-0.19 0.35,-0.1 0.76,-0.14 1.12,-0.23 1.73,-0.42 3.11,-1.31 4.29,-2.37 3.14,-2.83 3.62,-7.29 4.6,-11.47 0.34,-1.45 0.68,-2.85 1.04,-4.3 1.41,-5.74 2.79,-11.48 4.2,-17.21 1.41,-5.72 2.83,-11.44 4.24,-17.17 1.41,-5.75 2.9,-11.37 4.3,-17.11 0.57,-2.34 1.58,-6.56 1.89,-8.84 0.24,-1.75 0.6,-3.18 -1.74,-3.2 -1.78,-0.02 -3.56,0 -5.34,0 -7.13,0 -14.27,0.01 -21.4,0.01 -0.11,0.87 0.02,2.36 0.03,3.29 0.06,3.07 -0.03,5.78 -1.62,8.37 -2.77,4.51 -8.91,6.24 -13.77,3.29 -1.3,-0.79 -2.59,-2 -3.36,-3.29 -1.62,-2.71 -1.63,-5.22 -1.58,-8.42 0.02,-0.92 0.14,-2.38 0.03,-3.24l-21.92 0c-0.11,0.85 0,2.4 0,3.33 -0.01,2.86 -0.12,6.02 -1.64,8.34 -1.89,2.91 -4.87,4.72 -8.58,4.72 -3.53,0.01 -6.92,-1.87 -8.56,-4.74 -2.14,-3.73 -1.65,-7.08 -1.63,-11.53z"/>
    <path class="fil0" d="M82.49 12.71c-0.56,0.15 -2.99,0.4 -3.96,0.58 -3.67,0.66 -6.51,1.99 -9.55,4 -1.86,1.23 -3.45,2.74 -4.81,4.22 -2.98,3.25 -5.14,7.69 -5.98,12.13 -0.51,2.69 -0.66,5.5 -0.67,8.36 -0.01,2.99 0.09,5.99 0.06,8.98 -0.02,2.11 -0.22,7 0.14,8.83 0.74,3.84 5.66,5.01 8.46,2.49 1.82,-1.64 1.68,-4.85 1.68,-7.34 0,-4.4 -0.32,-8.94 -0.21,-13.35 0.06,-2.77 0.11,-5.49 0.96,-8.04 0.51,-1.51 1.43,-3.18 2.35,-4.4 1.56,-2.05 3.7,-3.85 6.34,-4.97 3.52,-1.49 7.67,-1.85 11.49,-0.55 1.07,0.36 2.24,0.87 3.1,1.42 1.98,1.26 3.29,2.37 4.74,4.29 1.29,1.71 2.35,3.55 2.77,6.26 0.65,4.15 0.25,12.95 0.26,17.65 0,1.49 0.06,2.94 0.1,4.42 0.04,1.54 0.2,2.58 0.83,3.68 2.06,3.61 9.38,3.64 9.41,-4.02 0.01,-2.99 0.06,-5.98 0.04,-8.98 -0.02,-2.94 0.05,-6.02 -0.08,-8.93 -0.28,-6.46 -2.18,-12.48 -5.73,-16.9 -0.84,-1.05 -1.72,-2.03 -2.7,-2.93 -1.32,-1.21 -3.01,-2.47 -4.58,-3.33 -0.97,-0.53 -1.96,-1.04 -3.03,-1.49 -3.36,-1.41 -4.76,-1.47 -8.26,-1.88 -0.68,-0.08 -0.5,-0.09 -0.97,-0.2 -0.3,-0.07 -1.92,-0.06 -2.2,0.02z"/>
    <path class="fil1" d="M59.23 118.79c0.92,-0.89 1.76,-1.78 2.65,-2.68l5.31 -5.37c0.47,-0.49 2.24,-2.33 2.63,-2.66l7.92 -8.05c3.06,-3.13 6.22,-6.25 9.26,-9.38l13.21 -13.4c0.42,-0.43 0.86,-0.94 1.3,-1.32 -0.83,-0.68 -1.81,-1.29 -2.78,-1.9 -0.45,-0.28 -0.99,-0.58 -1.49,-0.84 -2.92,-1.51 -5.42,-2.34 -8.71,-2.99 -5.36,-1.07 -11.72,-0.3 -16.25,1.51 -3.19,1.27 -5.63,2.68 -8.17,4.69 -1.13,0.9 -3.21,2.86 -4.16,4.05 -0.34,0.43 -0.7,0.84 -1.04,1.29 -1.28,1.73 -2.62,3.81 -3.48,5.84 -0.26,0.6 -1.2,2.81 -1.26,3.34l17.97 0.02 -18.05 18.05c0.05,0.33 0.34,1.11 0.47,1.45 0.17,0.44 0.33,0.91 0.52,1.33 0.39,0.86 0.75,1.76 1.2,2.54 0.49,0.84 2.32,4.03 2.96,4.51z"/>
    <path class="fil1" d="M93.88 113.6c0.16,-0.28 15.65,-15.69 16.71,-16.75 0.57,-0.57 1.1,-1.1 1.67,-1.67 0.53,-0.53 0.73,-0.58 0.65,-0.94 -0.73,-3.27 -1.52,-5.72 -3.1,-8.61 -0.2,-0.37 -0.38,-0.72 -0.59,-1.06 -0.19,-0.3 -0.47,-0.71 -0.62,-1.02 -0.3,0.2 -1.01,1 -1.31,1.31 -0.22,0.22 -0.45,0.42 -0.67,0.64 -0.22,0.24 -0.42,0.43 -0.64,0.67l-1.94 1.99c-0.12,0.12 -0.21,0.23 -0.33,0.35 -1.15,1.05 -2.34,2.4 -3.59,3.6 -0.23,0.22 -0.42,0.44 -0.64,0.67 -3.86,3.97 -7.82,7.89 -11.68,11.86 -0.23,0.23 -0.41,0.44 -0.64,0.67 -0.12,0.12 -0.24,0.2 -0.36,0.32l-3.56 3.62c-0.84,0.87 -2.09,2.19 -2.94,2.98 -0.58,0.53 -2.27,2.32 -2.9,2.98 -0.22,0.23 -0.45,0.42 -0.67,0.64l-3.25 3.3c-0.44,0.46 -0.85,0.88 -1.29,1.33l-1.63 1.67c-0.79,0.73 -1.52,1.52 -2.27,2.29 -0.38,0.39 -0.86,0.96 -1.3,1.27 0.09,0.19 -0.06,0.02 0.15,0.18l2.43 1.35c0.93,0.47 1.79,0.84 2.79,1.23 1.85,0.73 4.24,1.36 6.45,1.66 7.27,0.99 13.78,-0.49 19.77,-3.93 0.58,-0.33 1.95,-1.22 2.46,-1.62 0.4,-0.31 0.77,-0.58 1.15,-0.89 0.41,-0.33 0.69,-0.58 1.07,-0.91 1.42,-1.24 2.68,-2.6 3.91,-4.2 0.89,-1.16 2.51,-3.57 3.12,-4.98l-16.41 -0z"/>
    <path class="fil0" d="M55.86 146.74l2.41 9.33 2.81 0 2.42 -9.3 0.02 9.3 3.09 0 0 -12.33 -5.01 0c-0.12,0.64 -0.75,2.95 -0.96,3.76 -0.15,0.56 -0.82,3.43 -0.98,3.69l-1.87 -7.45 -5.06 0 0.02 12.33 3.09 0 0.02 -9.33z"/>
    <path class="fil0" d="M104.29 148.36c0.18,-0.3 0.81,-0.84 1.1,-1.16 0.37,-0.4 0.71,-0.75 1.09,-1.15l0.58 -0.58c0.19,-0.2 0.36,-0.36 0.55,-0.57 0.29,-0.31 0.96,-0.91 1.09,-1.17 -1.13,0 -2.27,0 -3.4,0 -1.83,0 -1.43,-0.28 -2.44,0.97l-3.14 3.65 0 -4.62 -3.84 -0c-0,1.67 -0.06,11.52 0.01,12.33l3.81 -0 0.01 -2.61c-0,-0.49 -0.02,-0.38 0.23,-0.64l1.72 -1.78c0.65,1.11 1.65,3.22 2.31,4.47 0.07,0.14 0.24,0.56 0.4,0.56 0.9,0 3.92,0.04 4.59,-0.01 -0.14,-0.31 -0.38,-0.66 -0.56,-0.95l-4.11 -6.75z"/>
    <path class="fil0" d="M86.35 146.21c0.9,0 2.59,-0.13 3.15,0.37 0.34,0.3 0.44,1.05 0.15,1.52 -0.5,0.8 -2.19,0.63 -3.28,0.63l-0.02 -0.18 0 -2.34zm4.36 4.41c1.36,-0.38 2.37,-0.96 2.79,-2.41 0.45,-1.56 -0.18,-3.17 -1.14,-3.8 -1.2,-0.77 -2.93,-0.68 -4.58,-0.68 -1.75,0 -3.5,0 -5.26,0l0.02 12.33 3.82 -0.01 0 -4.99c0.83,0 1.23,0.15 1.6,0.66 0.5,0.68 2.15,4.07 2.39,4.34l4.27 0c-0.04,-0.24 -0.63,-1.29 -0.78,-1.59 -0.27,-0.52 -0.52,-1.02 -0.8,-1.53 -0.32,-0.59 -0.54,-0.94 -0.92,-1.41 -0.66,-0.79 -0.83,-0.58 -1.4,-0.93z"/>
    <path class="fil0" d="M114.08 146.36c1.62,0 4.93,0.06 6.36,-0.01l0 -2.61 -10.2 -0c-0,1.56 -0.05,11.67 0.02,12.33l10.38 -0.01 0 -2.81 -6.54 0 -0.01 -2.42c1.5,0 4.56,0.06 5.87,-0.01l0 -2.47 -5.86 0 -0.01 -0.18 -0 -1.81z"/>
    <path class="fil0" d="M73.17 151.35c0,-0.19 1.19,-4.09 1.33,-4.38 0.15,0.45 1.32,4.21 1.32,4.38l-2.65 0zm-5.34 4.71c1.08,0 2.17,-0 3.25,0 0.82,0 0.6,0.18 0.87,-0.77 0.11,-0.39 0.28,-0.87 0.35,-1.27l4.27 -0c0.16,0.05 0.64,1.87 0.71,2.04l3.95 0c-0.02,-0.26 -0.43,-1.25 -0.55,-1.56l-3.91 -10.46c-0.06,-0.17 -0.04,-0.23 -0.18,-0.31l-4.04 0c-0.16,0.07 -0.04,-0.07 -0.15,0.16 -0.03,0.07 -0.04,0.1 -0.06,0.18 -0.63,1.8 -1.51,3.99 -2.2,5.82 -0.39,1.05 -0.77,2.05 -1.17,3.1 -0.17,0.43 -1.12,2.82 -1.13,3.08z"/>
    <path class="fil0" d="M38.16 153.39c0.08,-0.18 1.48,-1.57 1.74,-1.84l3.51 -3.63c0.45,-0.38 0.91,-0.99 1.3,-1.37 0.2,-0.19 0.35,-0.2 0.35,-0.53l-0.01 -2.3 -10.78 0.01 0.02 2.62 6.11 0c-0.08,0.18 -0.22,0.25 -0.45,0.5l-6.01 6.27c-0.13,0.13 -0.35,0.28 -0.35,0.53 -0,0.52 -0.03,2 0.02,2.41l11.67 0 0.05 -2.67 -7.18 0z"/>
    <polygon class="fil0" points="121.83,146.79 125.7,146.79 125.72,156.07 129.54,156.07 129.54,146.8 133.42,146.79 133.42,143.73 121.81,143.75 "/>
    <path class="fil1" d="M86.35 148.55l0.02 0.18c1.09,-0 2.79,0.17 3.28,-0.63 0.29,-0.47 0.19,-1.22 -0.15,-1.52 -0.56,-0.5 -2.25,-0.37 -3.15,-0.37l0 2.34z"/>
    <path class="fil1" d="M73.17 151.35l2.65 0c0,-0.17 -1.17,-3.93 -1.32,-4.38 -0.14,0.29 -1.33,4.19 -1.33,4.38z"/>
   </g>
  </g>
 </g>
</svg>
